<?xml version="1.0" standalone="no"?>
<!DOCTYPE svg PUBLIC "-//W3C//DTD SVG 20010904//EN"
 "http://www.w3.org/TR/2001/REC-SVG-20010904/DTD/svg10.dtd">
<svg version="1.0" xmlns="http://www.w3.org/2000/svg"
 width="1000.000000pt" height="1000.000000pt" viewBox="0 0 1000.000000 1000.000000"
 preserveAspectRatio="xMidYMid meet">
<metadata>
Created by potrace 1.11, written by Peter Selinger 2001-2013
</metadata>
<g transform="translate(0.000000,1000.000000) scale(0.100000,-0.100000)"
fill="#000000" stroke="none">
<path d="M1400 9993 c-72 -8 -266 -56 -342 -84 -211 -78 -403 -197 -560 -348
-254 -243 -399 -507 -475 -861 -17 -81 -18 -244 -18 -3705 l0 -3620 28 -119
c72 -300 205 -549 406 -758 243 -254 507 -399 861 -475 81 -17 244 -18 3705
-18 l3620 0 119 28 c300 72 549 205 758 406 254 243 399 507 475 861 17 81 18
244 18 3705 l0 3620 -28 119 c-72 300 -205 549 -406 758 -236 246 -489 389
-833 470 l-93 22 -3600 2 c-1980 0 -3616 -1 -3635 -3z m5775 -3123 c92 -13
180 -43 285 -95 186 -93 274 -202 209 -261 -20 -18 -54 -19 -935 -24 l-913 -5
110 -44 c148 -58 498 -233 632 -314 163 -100 251 -169 382 -301 133 -135 194
-225 242 -361 26 -74 28 -91 28 -235 0 -171 -7 -206 -72 -359 l-36 -85 24 -15
c13 -9 45 -36 72 -60 34 -32 47 -51 47 -71 0 -22 -10 -36 -47 -62 -27 -19 -61
-52 -78 -73 -93 -118 -224 -216 -320 -240 -139 -33 -229 -25 -425 41 -182 60
-326 131 -373 183 -20 23 -37 48 -37 55 0 8 41 61 91 118 197 224 321 415 380
585 32 92 34 106 33 228 0 117 -3 138 -28 205 -52 141 -101 205 -226 300 -87
65 -163 112 -275 168 -81 40 -230 92 -266 92 -19 0 -19 -22 -19 -1755 l0
-1755 -27 -17 c-24 -16 -50 -18 -213 -16 -580 8 -1127 142 -1660 409 -575 288
-888 653 -966 1123 -31 188 7 398 111 606 30 61 81 145 114 189 228 302 673
700 1271 1136 85 62 217 161 292 219 l137 106 -1032 5 c-1029 6 -1032 6 -1104
28 -159 48 -298 120 -367 188 -29 29 -56 81 -56 107 0 26 27 50 66 57 61 12
4866 11 4949 0z"/>
<path d="M4644 5557 c-644 -517 -837 -706 -971 -945 -136 -242 -172 -499 -107
-757 23 -91 105 -251 173 -335 96 -121 198 -202 336 -270 233 -114 438 -167
688 -177 l147 -6 0 1347 c0 740 -3 1346 -7 1345 -5 0 -121 -91 -259 -202z"/>
</g>
</svg>
