<?xml version="1.0" encoding="UTF-8"?>
<svg id="Layer_2" data-name="Layer 2" xmlns="http://www.w3.org/2000/svg" xmlns:xlink="http://www.w3.org/1999/xlink" viewBox="0 0 148.48 157.56">
  <defs>
    <style>
      .cls-1 {
        fill: url(#linear-gradient);
      }

      .cls-1, .cls-2, .cls-3, .cls-4, .cls-5, .cls-6, .cls-7, .cls-8, .cls-9, .cls-10, .cls-11, .cls-12, .cls-13, .cls-14, .cls-15 {
        stroke-width: 0px;
      }

      .cls-2 {
        fill: url(#linear-gradient-11);
      }

      .cls-3 {
        fill: url(#linear-gradient-12);
      }

      .cls-4 {
        fill: url(#linear-gradient-13);
      }

      .cls-5 {
        fill: url(#linear-gradient-10);
      }

      .cls-6 {
        fill: url(#linear-gradient-15);
      }

      .cls-7 {
        fill: url(#linear-gradient-14);
      }

      .cls-8 {
        fill: url(#linear-gradient-4);
      }

      .cls-9 {
        fill: url(#linear-gradient-2);
      }

      .cls-10 {
        fill: url(#linear-gradient-3);
      }

      .cls-11 {
        fill: url(#linear-gradient-8);
      }

      .cls-12 {
        fill: url(#linear-gradient-9);
      }

      .cls-13 {
        fill: url(#linear-gradient-7);
      }

      .cls-14 {
        fill: url(#linear-gradient-5);
      }

      .cls-15 {
        fill: url(#linear-gradient-6);
      }
    </style>
    <linearGradient id="linear-gradient" x1="51.14" y1="98.3" x2="53.39" y2="98.3" gradientUnits="userSpaceOnUse">
      <stop offset="0" stop-color="#4cbcec"/>
      <stop offset="1" stop-color="#5cbe7e"/>
    </linearGradient>
    <linearGradient id="linear-gradient-2" x1="78.72" y1="152.62" x2="81.43" y2="152.62" xlink:href="#linear-gradient"/>
    <linearGradient id="linear-gradient-3" x1="76.33" y1="155.18" x2="78.72" y2="155.18" xlink:href="#linear-gradient"/>
    <linearGradient id="linear-gradient-4" x1="72.74" y1="53.02" x2="71.49" y2="161.52" gradientUnits="userSpaceOnUse">
      <stop offset="0" stop-color="#46aad6"/>
      <stop offset="1" stop-color="#4da66e"/>
    </linearGradient>
    <linearGradient id="linear-gradient-5" x1="53.37" y1="107.4" x2="53.47" y2="107.4" xlink:href="#linear-gradient"/>
    <linearGradient id="linear-gradient-6" x1="69.61" y1="102.7" x2="70.58" y2="102.7" xlink:href="#linear-gradient"/>
    <linearGradient id="linear-gradient-7" x1="81.39" y1="150.8" x2="82.38" y2="150.8" xlink:href="#linear-gradient"/>
    <linearGradient id="linear-gradient-8" x1="53.55" y1="109.31" x2="54.31" y2="109.31" xlink:href="#linear-gradient"/>
    <linearGradient id="linear-gradient-9" x1="82.38" y1="149.42" x2="84.19" y2="149.42" xlink:href="#linear-gradient"/>
    <linearGradient id="linear-gradient-10" x1="70.58" y1="108.37" x2="73.5" y2="108.37" xlink:href="#linear-gradient"/>
    <linearGradient id="linear-gradient-11" x1="88.82" y1="78.69" x2="131.32" y2="120.44" xlink:href="#linear-gradient"/>
    <linearGradient id="linear-gradient-12" x1="117.87" y1="87.82" x2="140.7" y2="87.82" xlink:href="#linear-gradient"/>
    <linearGradient id="linear-gradient-13" x1="86.47" y1="166.65" x2="-2.2" y2="64.98" gradientUnits="userSpaceOnUse">
      <stop offset="0" stop-color="#5cbe7e"/>
      <stop offset="1" stop-color="#4cbcec"/>
    </linearGradient>
    <linearGradient id="linear-gradient-14" x1="68.51" y1="57.15" x2="156.01" y2="85.4" xlink:href="#linear-gradient-13"/>
    <linearGradient id="linear-gradient-15" x1="82.61" y1="-1.79" x2="8.61" y2="82.21" xlink:href="#linear-gradient-4"/>
  </defs>
  <g id="Layer_1-2" data-name="Layer 1">
    <g id="logo_icon" data-name="logo icon">
      <path class="cls-1" d="M53.39,107.31c-1.58-6.01-2.38-12.02-2.24-18.02.08,6.15.84,12.15,2.22,17.9.01.04.02.08.02.12Z"/>
      <path class="cls-9" d="M81.43,151.28l-2.71,2.71c.88-.92,1.76-1.85,2.67-2.74.01,0,.03.02.04.03Z"/>
      <path class="cls-10" d="M78.72,153.99c-.68.71-1.37,1.42-2.07,2.1-.11.11-.21.19-.32.29l2.39-2.39Z"/>
      <path class="cls-8" d="M92.9,139.81l-8.71,8.7-1.81,1.82c-.33.3-.67.6-.99.92-.91.89-1.79,1.82-2.67,2.74l-2.39,2.39c-1.01.91-1.84,1.29-2.68,1.15-9.21-12.64-15.83-27.29-19.06-43.17l1.32,1.33c-.59-1.64-1.11-3.31-1.6-5-.06-.24-.11-.48-.18-.71-.2-.68-.39-1.36-.58-2.05-.03-.1-.05-.21-.08-.31-.03-.15-.07-.29-.1-.43-1.38-5.75-2.14-11.75-2.22-17.9.12-5.55,1.04-11.09,2.87-16.62.12-.36.23-.72.36-1.08,2.71-7.72,6.95-14.57,12.59-20.45,3.69-3.85,7.42-7.66,11.16-11.46-7.06,11.99-11.13,25.96-11.13,40.89,0,7.06.91,13.91,2.61,20.43.28,1.13.61,2.26.97,3.4.84,2.72,1.82,5.36,2.92,7.95,4.5,10.48,11.15,19.82,19.4,27.46Z"/>
      <path class="cls-14" d="M53.47,107.62c-.03-.1-.05-.2-.08-.31,0-.04-.01-.08-.02-.12.03.14.07.28.1.43Z"/>
      <path class="cls-15" d="M70.58,104.4c-.36-1.14-.69-2.27-.97-3.4.3,1.15.62,2.28.97,3.4Z"/>
      <path class="cls-13" d="M82.38,150.33l-.95.95s-.03-.02-.04-.03c.32-.32.66-.62.99-.92Z"/>
      <path class="cls-11" d="M54.31,110.69c-.27-.91-.53-1.83-.76-2.76.19.69.38,1.37.58,2.05.07.23.12.47.18.71Z"/>
      <path class="cls-12" d="M84.19,148.51c-.32.41-.69.8-1.14,1.19-.23.2-.45.42-.67.63l1.81-1.82Z"/>
      <path class="cls-5" d="M73.5,112.35c-1.1-2.59-2.08-5.23-2.92-7.95.29.92.61,1.85.96,2.77.64,1.73,1.31,3.45,1.96,5.18Z"/>
      <path class="cls-2" d="M117.87,83.96l-20.47-6.92c-1.21-.4-2.42-.8-3.64-1.19-3.71-1.2-7.22-.47-9.7,1.61-2.09,2.49-2.83,6.02-1.64,9.73,3.44,10.71,7.08,21.35,10.68,32.01.34,1,.81,1.99,1.42,2.84,2.27,3.18,5.47,4.47,9.27,3.96,1.53-.21,2.96-.63,4.16-1.39l2.11-2.11,5.11-5.11c-.01.07-.02.13-.04.2l6.65-6.65-6.65,6.65s0,.03,0,.05c2.38-2.09,22.52-22.91,24.58-24.96.33-.33.67-.66,1.01-.99h0s0,0,0,0l-22.84-7.72Z"/>
      <polygon class="cls-3" points="140.7 91.68 140.7 91.68 117.87 83.96 140.7 91.68"/>
      <path class="cls-4" d="M73.65,157.53c-.68-.12-1.38-.57-2.2-1.4-16.89-17.09-33.78-34.2-50.65-51.31-5.61-5.69-11.22-11.37-16.81-17.06-2.07-2.1-3.32-4.34-3.79-6.63-.52-2.55-.03-5.16,1.41-7.72,1.71-.5,3.52-.79,5.4-.79,5.38,0,10.23,2.24,13.69,5.82-.05.18-.08.36-.09.54-.02,1.01.71,2.02,2.19,3.51.59.6,1.18,1.19,1.78,1.78,7.74,7.79,15.49,15.57,23.26,23.34,1.36,1.36,2.71,2.72,4.07,4.08.04.05.09.09.14.13l2.54,2.54c3.23,15.88,9.85,30.53,19.06,43.17Z"/>
      <path class="cls-7" d="M148.48,77.71v2.66c-.95,4.94-4.44,8.07-7.78,11.31l-22.84-7.72-20.46-6.92c8.25,2.71,16.48,5.52,24.7,8.32,1.33-1.39,2.2-2.3,2.25-2.36,3.53-3.76,3.51-4.44-.03-8.02-8.17-8.26-16.32-16.55-24.49-24.81-3.22-3.26-4.19-3.27-7.4-.04-4.37,4.4-8.84,8.72-13.02,13.3-10.24,11.23-13.19,23.86-9.8,37.57-1.7-6.52-2.61-13.37-2.61-20.43,0-14.93,4.07-28.9,11.13-40.89,5.03-5.11,10.08-10.2,15.12-15.3,2.29-2.3,3.47-2.24,5.85,0,.39.36.76.74,1.13,1.12,13.68,13.78,27.32,27.6,41.07,41.32,3.18,3.17,6.15,6.35,7.18,10.88Z"/>
      <path class="cls-6" d="M83.65,14.32c-1.47,1.54-2.98,3.04-4.48,4.55-3.77,3.79-7.54,7.58-11.32,11.38-16.82,16.9-30.21,30.36-44.96,45.2-1.24,1.24-1.96,2.15-2.19,2.99-3.46-3.58-8.31-5.82-13.69-5.82-1.88,0-3.69.29-5.4.79.72-1.28,1.66-2.54,2.86-3.78.89-.91,1.78-1.81,2.67-2.72,7.43-7.58,14.91-15.11,22.37-22.67,13.07-13.23,26.15-26.47,39.24-39.69.7-.71,1.4-1.41,2.1-2.12.92-.93,2.07-1.63,3.11-2.43h.53c3.11,3.02,6.26,5.99,9.3,9.08,1.92,1.95,1.82,3.19-.14,5.24Z"/>
    </g>
  </g>
</svg>