<?xml version="1.0" standalone="no"?>
<!DOCTYPE svg PUBLIC "-//W3C//DTD SVG 20010904//EN"
 "http://www.w3.org/TR/2001/REC-SVG-20010904/DTD/svg10.dtd">
<svg version="1.0" xmlns="http://www.w3.org/2000/svg"
 width="632.000000pt" height="632.000000pt" viewBox="0 0 632.000000 632.000000"
 preserveAspectRatio="xMidYMid meet">
<metadata>
Created by potrace 1.14, written by Peter Selinger 2001-2017
</metadata>
<g transform="translate(0.000000,632.000000) scale(0.100000,-0.100000)"
fill="#000000" stroke="none">
<path d="M3099 6280 c-30 -23 -193 -182 -364 -355 -273 -276 -701 -710 -1593
-1613 -729 -738 -824 -837 -869 -910 -116 -185 -106 -375 26 -542 20 -25 90
-100 156 -167 66 -67 325 -330 575 -584 250 -253 544 -552 653 -663 109 -110
427 -433 707 -716 280 -283 517 -525 528 -537 10 -13 22 -20 26 -16 3 3 6 2 6
-4 0 -10 97 -112 140 -147 34 -28 93 -29 127 -3 15 12 178 171 362 355 l334
334 -64 62 c-259 252 -495 580 -651 906 -58 120 -88 190 -88 204 0 7 -3 16 -7
19 -23 23 -132 375 -149 482 -3 20 -8 47 -10 59 -17 85 -23 341 -9 421 3 22 8
51 10 65 30 204 143 481 261 635 19 25 34 48 34 51 0 3 6 11 13 18 6 7 26 30
42 51 65 81 120 140 389 412 163 165 292 287 310 294 44 17 85 12 120 -15 30
-23 253 -245 636 -636 105 -107 258 -262 339 -345 190 -193 205 -216 179 -280
-15 -37 -52 -81 -144 -177 -35 -35 -50 -45 -63 -39 -27 14 -65 29 -86 34 -11
3 -108 35 -215 72 -107 37 -199 68 -205 69 -5 1 -14 4 -20 7 -10 6 -140 51
-160 55 -5 1 -107 35 -225 74 -270 90 -249 85 -355 84 -140 -2 -228 -48 -278
-147 -35 -68 -42 -102 -42 -197 1 -63 10 -104 58 -255 32 -99 62 -189 67 -200
9 -20 32 -91 36 -110 1 -5 39 -118 83 -250 45 -132 108 -319 141 -415 32 -96
64 -188 71 -205 7 -16 13 -32 13 -35 3 -16 69 -100 101 -128 79 -73 223 -108
332 -81 21 5 47 12 58 14 45 10 77 35 220 174 370 360 1320 1326 1376 1401 22
29 47 68 56 89 9 20 21 39 26 42 5 3 8 10 7 15 -1 5 4 28 11 52 19 70 7 179
-29 255 -28 60 -70 129 -112 181 -14 18 -185 191 -1380 1395 -267 269 -500
497 -519 506 -74 37 -71 39 -476 -370 -355 -358 -696 -708 -787 -807 -47 -50
-56 -61 -108 -128 -19 -25 -37 -47 -40 -50 -13 -11 -120 -180 -120 -189 0 -5
-4 -11 -8 -13 -10 -4 -91 -162 -127 -248 -54 -128 -124 -352 -141 -450 -2 -14
-8 -50 -14 -80 -18 -99 -33 -262 -31 -340 2 -103 9 -258 15 -295 3 -22 8 -60
11 -85 5 -47 15 -100 41 -225 3 -16 17 -73 31 -125 14 -52 26 -102 28 -110 2
-8 17 -54 33 -102 16 -49 27 -88 26 -88 -4 0 -516 513 -1129 1130 -133 135
-252 260 -263 278 -24 40 -17 86 21 135 14 17 325 334 692 702 1796 1806 1874
1885 1851 1885 -3 0 -1 11 3 24 7 17 4 32 -10 57 -23 39 -408 419 -424 419 -6
0 -36 -18 -66 -40z"/>
</g>
</svg>
