<?xml version="1.0" standalone="no"?>
<!DOCTYPE svg PUBLIC "-//W3C//DTD SVG 20010904//EN"
 "http://www.w3.org/TR/2001/REC-SVG-20010904/DTD/svg10.dtd">
<svg version="1.0" xmlns="http://www.w3.org/2000/svg"
 width="700.000000pt" height="700.000000pt" viewBox="0 0 700.000000 700.000000"
 preserveAspectRatio="xMidYMid meet">
<metadata>
Created by potrace 1.14, written by Peter Selinger 2001-2017
</metadata>
<g transform="translate(0.000000,700.000000) scale(0.100000,-0.100000)"
fill="#000000" stroke="none">
<path d="M3446 6955 c-66 -47 -85 -65 -586 -575 -239 -244 -577 -587 -750
-763 -173 -176 -369 -375 -435 -442 -66 -68 -312 -318 -546 -556 -703 -715
-746 -760 -786 -819 -78 -115 -114 -226 -108 -333 4 -83 11 -111 44 -182 38
-82 94 -149 312 -370 103 -104 243 -247 311 -316 68 -70 296 -303 508 -519
212 -215 462 -470 555 -565 1396 -1423 1471 -1499 1489 -1492 9 4 16 2 16 -4
0 -12 39 -5 76 14 34 18 770 754 767 767 -2 5 -47 53 -100 107 -54 54 -121
125 -148 158 -28 33 -58 69 -68 80 -71 77 -265 358 -352 509 -73 128 -199 401
-231 501 -2 6 -25 73 -52 150 -44 128 -65 201 -77 263 -2 13 -7 32 -10 42 -3
10 -8 33 -10 51 -3 19 -7 44 -9 57 -8 36 -19 200 -19 267 0 49 13 224 18 245
0 3 5 28 10 55 54 312 226 638 486 920 133 144 615 627 645 645 41 26 81 27
124 6 36 -19 93 -76 760 -756 212 -216 400 -407 419 -424 59 -55 121 -146 121
-177 0 -48 -32 -98 -127 -197 l-88 -93 -305 104 c-168 58 -312 107 -320 110
-8 3 -141 47 -295 97 -154 51 -289 96 -300 101 -148 59 -333 36 -441 -55 -17
-13 -44 -53 -61 -88 -54 -107 -61 -202 -24 -340 35 -135 482 -1462 508 -1510
50 -92 141 -169 239 -203 90 -31 246 -18 339 27 22 11 110 91 198 179 87 87
161 159 165 159 7 0 226 222 642 650 162 167 360 369 439 449 251 255 302 319
348 435 30 75 40 187 24 253 -12 45 -67 172 -80 183 -3 3 -18 23 -32 45 -41
62 -81 106 -277 305 -101 102 -430 434 -730 738 -301 304 -671 679 -823 832
-152 154 -288 284 -303 290 -40 15 -77 12 -112 -9 -38 -23 -360 -347 -990
-997 -305 -314 -362 -378 -451 -502 -268 -375 -424 -790 -469 -1247 -8 -82
-13 -376 -6 -388 2 -5 6 -34 7 -65 4 -77 14 -167 21 -200 3 -15 8 -43 10 -62
3 -19 7 -44 9 -55 3 -11 9 -41 14 -66 25 -121 107 -415 139 -498 5 -12 -562
554 -1232 1232 -156 159 -292 305 -301 324 -23 48 -14 95 28 146 36 44 98 106
1227 1247 601 607 942 952 1404 1420 68 69 133 141 145 160 29 48 27 89 -7
136 -31 42 -438 444 -450 444 -4 0 -29 -16 -56 -35z"/>
</g>
</svg>
